<?xml version="1.0" encoding="UTF-8" standalone="no"?>
<!DOCTYPE svg PUBLIC "-//W3C//DTD SVG 1.1//EN"
 "http://www.w3.org/Graphics/SVG/1.1/DTD/svg11.dtd">
<!-- Generated by graphviz version 2.47.0 (20210316.0004)
 -->
<!-- Title: dependencies Pages: 1 -->
<svg width="595pt" height="211pt"
 viewBox="0.00 0.00 595.00 211.00" xmlns="http://www.w3.org/2000/svg" xmlns:xlink="http://www.w3.org/1999/xlink">
<g id="graph0" class="graph" transform="scale(1 1) rotate(0) translate(4 207)">
<title>dependencies</title>
<polygon fill="white" stroke="transparent" points="-4,4 -4,-207 591,-207 591,4 -4,4"/>
<text text-anchor="start" x="272.51" y="-42.4" font-family="Times-12" font-weight="bold" font-size="14.00">Legend</text>
<polygon fill="#ffffb3" stroke="transparent" points="59.5,-10 59.5,-30 79.5,-30 79.5,-10 59.5,-10"/>
<text text-anchor="start" x="83.13" y="-15.4" font-family="Times-12" font-size="14.00"> &#160;Declarations</text>
<polygon fill="#8dd3c7" stroke="transparent" points="172.5,-10 172.5,-30 192.5,-30 192.5,-10 172.5,-10"/>
<text text-anchor="start" x="196.23" y="-15.4" font-family="Times-12" font-size="14.00"> &#160;Module</text>
<polygon fill="#80b1d3" stroke="transparent" points="258.5,-10 258.5,-30 278.5,-30 278.5,-10 258.5,-10"/>
<text text-anchor="start" x="282.28" y="-15.4" font-family="Times-12" font-size="14.00"> &#160;Bootstrap</text>
<polygon fill="#fdb462" stroke="transparent" points="355.5,-10 355.5,-30 375.5,-30 375.5,-10 355.5,-10"/>
<text text-anchor="start" x="379.17" y="-15.4" font-family="Times-12" font-size="14.00"> &#160;Providers</text>
<polygon fill="#fb8072" stroke="transparent" points="451.5,-10 451.5,-30 471.5,-30 471.5,-10 451.5,-10"/>
<text text-anchor="start" x="475.23" y="-15.4" font-family="Times-12" font-size="14.00"> &#160;Exports</text>
<g id="clust1" class="cluster">
<title>cluster_PostsModule</title>
<polygon fill="none" stroke="black" stroke-dasharray="1,5" points="8,-70 8,-195 579,-195 579,-70 8,-70"/>
</g>
<g id="clust6" class="cluster">
<title>cluster_PostsModule_providers</title>
<polygon fill="none" stroke="black" points="236,-78 236,-130 571,-130 571,-78 236,-78"/>
</g>
<g id="clust3" class="cluster">
<title>cluster_PostsModule_imports</title>
<polygon fill="none" stroke="black" points="16,-78 16,-130 228,-130 228,-78 16,-78"/>
</g>
<!-- TagsModule -->
<g id="node1" class="node">
<title>TagsModule</title>
<polygon fill="#8dd3c7" stroke="black" points="220.26,-122 217.26,-126 196.26,-126 193.26,-122 133.74,-122 133.74,-86 220.26,-86 220.26,-122"/>
<text text-anchor="middle" x="177" y="-99.8" font-family="Times,serif" font-size="14.00">TagsModule</text>
</g>
<!-- PostsModule -->
<g id="node3" class="node">
<title>PostsModule</title>
<polygon fill="#8dd3c7" stroke="black" points="284.61,-187 281.61,-191 260.61,-191 257.61,-187 195.39,-187 195.39,-151 284.61,-151 284.61,-187"/>
<text text-anchor="middle" x="240" y="-164.8" font-family="Times,serif" font-size="14.00">PostsModule</text>
</g>
<!-- TagsModule&#45;&gt;PostsModule -->
<g id="edge1" class="edge">
<title>TagsModule&#45;&gt;PostsModule</title>
<path fill="none" stroke="black" d="M207.91,-122.11C207.91,-122.11 207.91,-140.99 207.91,-140.99"/>
<polygon fill="black" stroke="black" points="204.41,-140.99 207.91,-150.99 211.41,-140.99 204.41,-140.99"/>
</g>
<!-- UsersModule -->
<g id="node2" class="node">
<title>UsersModule</title>
<polygon fill="#8dd3c7" stroke="black" points="115.92,-122 112.92,-126 91.92,-126 88.92,-122 24.08,-122 24.08,-86 115.92,-86 115.92,-122"/>
<text text-anchor="middle" x="70" y="-99.8" font-family="Times,serif" font-size="14.00">UsersModule</text>
</g>
<!-- UsersModule&#45;&gt;PostsModule -->
<g id="edge2" class="edge">
<title>UsersModule&#45;&gt;PostsModule</title>
<path fill="none" stroke="black" d="M70,-122.11C70,-141.34 70,-169 70,-169 70,-169 185.33,-169 185.33,-169"/>
<polygon fill="black" stroke="black" points="185.33,-172.5 195.33,-169 185.33,-165.5 185.33,-172.5"/>
</g>
<!-- MetaOptionsService -->
<g id="node4" class="node">
<title>MetaOptionsService</title>
<ellipse fill="#fdb462" stroke="black" cx="473" cy="-104" rx="90.33" ry="18"/>
<text text-anchor="middle" x="473" y="-99.8" font-family="Times,serif" font-size="14.00">MetaOptionsService</text>
</g>
<!-- MetaOptionsService&#45;&gt;PostsModule -->
<g id="edge3" class="edge">
<title>MetaOptionsService&#45;&gt;PostsModule</title>
<path fill="none" stroke="black" d="M473,-122.11C473,-141.34 473,-169 473,-169 473,-169 294.65,-169 294.65,-169"/>
<polygon fill="black" stroke="black" points="294.65,-165.5 284.65,-169 294.65,-172.5 294.65,-165.5"/>
</g>
<!-- PostsService -->
<g id="node5" class="node">
<title>PostsService</title>
<ellipse fill="#fdb462" stroke="black" cx="304" cy="-104" rx="60.27" ry="18"/>
<text text-anchor="middle" x="304" y="-99.8" font-family="Times,serif" font-size="14.00">PostsService</text>
</g>
<!-- PostsService&#45;&gt;PostsModule -->
<g id="edge4" class="edge">
<title>PostsService&#45;&gt;PostsModule</title>
<path fill="none" stroke="black" d="M264.09,-117.78C264.09,-117.78 264.09,-140.55 264.09,-140.55"/>
<polygon fill="black" stroke="black" points="260.59,-140.55 264.09,-150.55 267.59,-140.55 260.59,-140.55"/>
</g>
</g>
</svg>
